<svg
      xmlns="http://www.w3.org/2000/svg"
      xmlnsXlink="http://www.w3.org/1999/xlink"
      width="120px"
      height="120px"
      viewBox="0 0 95.318 95.318"
    >
    <style type="text/css">
      .st0{fill:#bdbdbd;}
    </style>
      <g transform="translate(-57.7 -79.677)">
        <path class="st0"
          id="a"
          strokeWidth="3.78"
          d="M298.5 447.5a35.86 35.86 0 00-35.859 35.859A35.86 35.86 0 00298.5 519.22a35.86 35.86 0 0035.861-35.861A35.86 35.86 0 00298.5 447.5zm-.104 7.07a28.789 28.789 0 01.104 0 28.789 28.789 0 0128.789 28.79 28.789 28.789 0 01-28.789 28.788 28.789 28.789 0 01-28.789-28.789 28.789 28.789 0 0128.686-28.789z"
          transform="scale(.26458)"
        ></path>
        <use width="100%" height="100%" xlinkHref="#a"></use>
        <use
          width="100%"
          height="100%"
          transform="translate(26.567)"
          xlinkHref="#a"
        ></use>
        <use
          width="100%"
          height="100%"
          transform="translate(53.133)"
          xlinkHref="#a"
        ></use>
      </g>
      <path class="st0" d="M47.659 0A47.659 47.659 0 000 47.659a47.659 47.659 0 0047.659 47.659 47.659 47.659 0 0047.659-47.659A47.659 47.659 0 0047.659 0zm0 4.22a43.439 43.439 0 0143.439 43.438 43.439 43.439 0 01-43.439 43.44A43.439 43.439 0 014.22 47.657 43.439 43.439 0 0147.659 4.22z"></path>
    </svg>