<svg style="height:120px;width:120px" version="1.1"
	viewBox="0.0019931793212890625 36.04899978637695 512 439.9040222167969" xml:space="preserve"
	xmlns="http://www.w3.org/2000/svg">
	<style type="text/css">
		.st0 {
			fill: #bdbdbd;
		}
	</style>
	<g fill="#4b4b4b">
		<path class="st0"
			d="m145.48 368.56h73.953v27.379h73.133v-27.378h73.953v-57.248h54.282v-192.94h-329.6v192.94h54.282v57.247zm3.656-156.3v-48.926h21.457v48.926h-21.457zm48.066 0v-48.926h21.457v48.926h-21.457zm48.067 0v-48.926h21.457v48.926h-21.457zm48.066 0v-48.926h21.461v48.926h-21.461zm48.066 0v-48.926h21.461v48.926h-21.461z">
		</path>
		<path class="st0"
			d="m481.1 36.049h-450.2c-17.066 0-30.898 13.836-30.898 30.902v378.1c0 17.066 13.832 30.902 30.898 30.902h450.2c17.066 0 30.902-13.836 30.902-30.902v-378.1c1e-3 -17.066-13.835-30.902-30.901-30.902zm0 30.902v378.1h-450.2v-378.1h450.2z">
		</path>
	</g>
</svg>