<svg id="Layer_1" data-name="Layer 1" xmlns="http://www.w3.org/2000/svg" viewBox="0 0 140.39 190.56">
  <defs>
    <style>
      .cls-1 {
        fill: #ababab;
      }
    </style>
  </defs>
  <path class="cls-1"
    d="M309.4,297l67,66.66v83.9H276V297h33.4m8.26-20h-49A12.74,12.74,0,0,0,256,289.7V454.86a12.74,12.74,0,0,0,12.7,12.7h115a12.74,12.74,0,0,0,12.7-12.7V355.34L317.66,277Z"
    transform="translate(-256 -277)" />
  <polygon class="cls-1" points="103.37 10 130.23 10 129.83 36.73 103.37 10" />
  <path class="cls-1"
    d="M386.23,277H347.39a5,5,0,0,0-3.55,8.52l43.25,43.7a4.9,4.9,0,0,0,3.52,1.49,5,5,0,0,0,5-4.93l.58-38.63a10,10,0,0,0-10-10.15Z"
    transform="translate(-256 -277)" />
</svg>